<svg width="24" height="6" viewBox="0 0 24 6" fill="none" xmlns="http://www.w3.org/2000/svg">
<path d="M12 0C11.4726 0 10.957 0.175947 10.5185 0.505591C10.08 0.835235 9.73816 1.30377 9.53632 1.85195C9.33449 2.40013 9.28168 3.00333 9.38457 3.58527C9.48747 4.16721 9.74144 4.70176 10.1144 5.12132C10.4873 5.54088 10.9625 5.8266 11.4798 5.94235C11.997 6.05811 12.5332 5.9987 13.0205 5.77164C13.5078 5.54457 13.9242 5.16006 14.2173 4.66671C14.5103 4.17336 14.6667 3.59334 14.6667 3C14.6667 2.20435 14.3857 1.44129 13.8856 0.87868C13.3855 0.316071 12.7072 0 12 0ZM2.66667 0C2.13925 0 1.62368 0.175947 1.18515 0.505591C0.746616 0.835235 0.404823 1.30377 0.202989 1.85195C0.00115542 2.40013 -0.0516535 3.00333 0.0512405 3.58527C0.154134 4.16721 0.40811 4.70176 0.78105 5.12132C1.15399 5.54088 1.62914 5.8266 2.14643 5.94235C2.66371 6.05811 3.19989 5.9987 3.68716 5.77164C4.17443 5.54457 4.5909 5.16006 4.88392 4.66671C5.17694 4.17336 5.33333 3.59334 5.33333 3C5.33333 2.20435 5.05238 1.44129 4.55229 0.87868C4.05219 0.316071 3.37391 0 2.66667 0ZM21.3333 0C20.8059 0 20.2903 0.175947 19.8518 0.505591C19.4133 0.835235 19.0715 1.30377 18.8697 1.85195C18.6678 2.40013 18.615 3.00333 18.7179 3.58527C18.8208 4.16721 19.0748 4.70176 19.4477 5.12132C19.8207 5.54088 20.2958 5.8266 20.8131 5.94235C21.3304 6.05811 21.8666 5.9987 22.3538 5.77164C22.8411 5.54457 23.2576 5.16006 23.5506 4.66671C23.8436 4.17336 24 3.59334 24 3C24 2.20435 23.719 1.44129 23.219 0.87868C22.7189 0.316071 22.0406 0 21.3333 0Z" fill="black"/>
</svg>
